<svg width="61" height="60" viewBox="0 0 61 60" fill="none" xmlns="http://www.w3.org/2000/svg">
<rect x="2.40015" y="2" width="56" height="56" rx="28" fill="#F8F9FD"/>
<rect x="2.40015" y="2" width="56" height="56" rx="28" stroke="#E8EBF9" stroke-width="4"/>
<path d="M33.2585 23.9833C33.1275 23.9176 32.9814 23.8877 32.8351 23.8965C32.6888 23.9052 32.5474 23.9524 32.4252 24.0333C32.3078 24.1086 32.2112 24.2122 32.1442 24.3345C32.0773 24.4568 32.0421 24.5939 32.0418 24.7333V29.55L30.4002 30.6667L28.7335 29.55V24.7333C28.7333 24.5939 28.698 24.4568 28.6311 24.3345C28.5641 24.2122 28.4675 24.1086 28.3502 24.0333C28.2279 23.9524 28.0865 23.9052 27.9402 23.8965C27.7939 23.8877 27.6479 23.9176 27.5168 23.9833C26.3773 24.5199 25.4153 25.3718 24.7448 26.4381C24.0743 27.5044 23.7233 28.7405 23.7335 30C23.7389 31.1682 24.0492 32.3148 24.6339 33.3263C25.2185 34.3377 26.0572 35.1789 27.0668 35.7667V39.6833C27.0608 39.8726 27.1195 40.0582 27.2331 40.2097C27.3467 40.3612 27.5085 40.4694 27.6918 40.5167C29.4687 40.9721 31.3317 40.9721 33.1085 40.5167C33.2918 40.4694 33.4536 40.3612 33.5672 40.2097C33.6808 40.0582 33.7395 39.8726 33.7335 39.6833V35.7667C34.7431 35.1789 35.5818 34.3377 36.1664 33.3263C36.7511 32.3148 37.0614 31.1682 37.0668 30C37.0748 28.7377 36.7201 27.4998 36.045 26.4332C35.3699 25.3666 34.4027 24.5163 33.2585 23.9833Z" fill="#153AC7"/>
<path d="M45.0169 32.3C45.2614 30.7764 45.2614 29.2236 45.0169 27.7L46.6085 25.8333C46.7211 25.7027 46.7903 25.5404 46.8068 25.3687C46.8232 25.1971 46.7859 25.0246 46.7002 24.875L42.9669 18.425C42.883 18.2835 42.759 18.17 42.6108 18.0989C42.4625 18.0277 42.2964 18.002 42.1335 18.025L39.7419 18.475C38.5436 17.5054 37.1991 16.7319 35.7585 16.1833L34.9252 13.875C34.8658 13.7041 34.7523 13.5571 34.602 13.4564C34.4516 13.3557 34.2726 13.3066 34.0919 13.3167H26.6752C26.4945 13.3066 26.3155 13.3557 26.1651 13.4564C26.0148 13.5571 25.9013 13.7041 25.8419 13.875L25.0085 16.1833C23.568 16.7319 22.2235 17.5054 21.0252 18.475L18.7335 18.0417C18.5642 18.0097 18.3892 18.031 18.2325 18.1026C18.0758 18.1743 17.9451 18.2927 17.8585 18.4417L14.1002 24.8917C14.0182 25.0394 13.9831 25.2086 13.9994 25.3768C14.0158 25.5449 14.0829 25.7042 14.1919 25.8333L15.7835 27.6833C15.5391 29.2069 15.5391 30.7597 15.7835 32.2833L14.1919 34.1667C14.0793 34.2973 14.0101 34.4596 13.9937 34.6313C13.9772 34.8029 14.0145 34.9754 14.1002 35.125L17.8335 41.575C17.9201 41.7239 18.0508 41.8424 18.2075 41.914C18.3642 41.9857 18.5392 42.007 18.7085 41.975L21.1002 41.525C22.2985 42.4946 23.643 43.2681 25.0835 43.8167L25.9169 46.125C25.9763 46.2959 26.0898 46.4429 26.2401 46.5436C26.3905 46.6443 26.5695 46.6934 26.7502 46.6833H34.2002C34.3809 46.6934 34.5599 46.6443 34.7103 46.5436C34.8606 46.4429 34.9741 46.2959 35.0335 46.125L35.8669 43.8167C37.3074 43.2681 38.6519 42.4946 39.8502 41.525L42.2419 41.975C42.4047 41.998 42.5708 41.9723 42.7191 41.9011C42.8674 41.83 42.9913 41.7165 43.0752 41.575L46.8085 35.125C46.8806 34.9646 46.9 34.7855 46.8641 34.6134C46.8282 34.4412 46.7387 34.2849 46.6085 34.1667L45.0169 32.3ZM35.0169 37.9417C34.7719 38.0844 34.5187 38.2124 34.2585 38.325C33.7698 38.5588 33.259 38.743 32.7335 38.875C31.2298 39.2584 29.6539 39.2584 28.1502 38.875C27.6052 38.7493 27.0746 38.5678 26.5669 38.3333C26.3086 38.2224 26.0581 38.0943 25.8169 37.95C24.0693 36.9411 22.7035 35.3837 21.9313 33.5194C21.1591 31.6551 21.0236 29.5881 21.5459 27.6389C22.0682 25.6898 23.219 23.9674 24.8199 22.739C26.4208 21.5106 28.3823 20.8448 30.4002 20.8448C32.4181 20.8448 34.3796 21.5106 35.9805 22.739C37.5814 23.9674 38.7323 25.6898 39.2545 27.6389C39.7768 29.5881 39.6413 31.6551 38.8691 33.5194C38.0969 35.3837 36.7311 36.9411 34.9835 37.95L35.0169 37.9417Z" fill="#35C2FF"/>
</svg>
