<svg width="61" height="60" viewBox="0 0 61 60" fill="none" xmlns="http://www.w3.org/2000/svg">
<rect x="2.80005" y="2" width="56" height="56" rx="28" fill="#F8F9FD"/>
<rect x="2.80005" y="2" width="56" height="56" rx="28" stroke="#E8EBF9" stroke-width="4"/>
<path d="M42.4667 15.4167H19.1334C16.6021 15.4167 14.55 17.4687 14.55 20V41.6667C14.55 44.198 16.6021 46.25 19.1334 46.25H42.4667C44.998 46.25 47.05 44.198 47.05 41.6667V20C47.05 17.4687 44.998 15.4167 42.4667 15.4167Z" fill="#35C2FF"/>
<path d="M42.4667 15.4167H19.1334C16.605 15.4167 14.55 17.4717 14.55 20V26.25H47.05V20C47.05 17.4717 44.995 15.4167 42.4667 15.4167Z" fill="#153AC7"/>
<path d="M24.1334 19.5833C23.4434 19.5833 22.8834 19.0233 22.8834 18.3333V15C22.8834 14.31 23.4434 13.75 24.1334 13.75C24.8234 13.75 25.3834 14.31 25.3834 15V18.3333C25.3834 19.0233 24.8234 19.5833 24.1334 19.5833ZM38.7168 18.3333V15C38.7168 14.31 38.1568 13.75 37.4668 13.75C36.7768 13.75 36.2168 14.31 36.2168 15V18.3333C36.2168 19.0233 36.7768 19.5833 37.4668 19.5833C38.1568 19.5833 38.7168 19.0233 38.7168 18.3333Z" fill="#35C2FF"/>
</svg>
