<svg width="60" height="60" viewBox="0 0 60 60" fill="none" xmlns="http://www.w3.org/2000/svg">
<rect x="2" y="2" width="56" height="56" rx="28" fill="#F8F9FD"/>
<rect x="2" y="2" width="56" height="56" rx="28" stroke="#E8EBF9" stroke-width="4"/>
<path d="M45 26.6667H15C14.558 26.6667 14.1341 26.4911 13.8215 26.1785C13.5089 25.866 13.3333 25.442 13.3333 25V20C13.3347 18.6743 13.8619 17.4033 14.7993 16.4659C15.7367 15.5285 17.0077 15.0013 18.3333 15H41.6667C42.9924 15.0013 44.2634 15.5285 45.2007 16.4659C46.1381 17.4033 46.6654 18.6743 46.6667 20V25C46.6667 25.442 46.4911 25.866 46.1785 26.1785C45.866 26.4911 45.442 26.6667 45 26.6667ZM33.3333 33.3333H26.6667C26.2246 33.3333 25.8007 33.1577 25.4882 32.8452C25.1756 32.5326 25 32.1087 25 31.6667C25 31.2246 25.1756 30.8007 25.4882 30.4882C25.8007 30.1756 26.2246 30 26.6667 30H33.3333C33.7754 30 34.1993 30.1756 34.5119 30.4882C34.8244 30.8007 35 31.2246 35 31.6667C35 32.1087 34.8244 32.5326 34.5119 32.8452C34.1993 33.1577 33.7754 33.3333 33.3333 33.3333Z" fill="#153AC7"/>
<path d="M16.6667 26.6667V40C16.668 41.3257 17.1952 42.5967 18.1326 43.5341C19.07 44.4715 20.341 44.9987 21.6667 45H38.3333C39.659 44.9987 40.93 44.4715 41.8674 43.5341C42.8048 42.5967 43.332 41.3257 43.3333 40V26.6667H16.6667ZM33.3333 33.3333H26.6667C26.2246 33.3333 25.8007 33.1577 25.4881 32.8452C25.1756 32.5326 25 32.1087 25 31.6667C25 31.2246 25.1756 30.8007 25.4881 30.4882C25.8007 30.1756 26.2246 30 26.6667 30H33.3333C33.7754 30 34.1993 30.1756 34.5118 30.4882C34.8244 30.8007 35 31.2246 35 31.6667C35 32.1087 34.8244 32.5326 34.5118 32.8452C34.1993 33.1577 33.7754 33.3333 33.3333 33.3333Z" fill="#35C2FF"/>
</svg>
