<svg width="61" height="60" viewBox="0 0 61 60" fill="none" xmlns="http://www.w3.org/2000/svg">
<rect x="2.19995" y="2" width="56" height="56" rx="28" fill="#F8F9FD"/>
<rect x="2.19995" y="2" width="56" height="56" rx="28" stroke="#E8EBF9" stroke-width="4"/>
<path d="M26.117 13.8844L25.8522 13.9753C25.1712 14.2024 24.5753 14.4568 24.0078 14.7384C23.1093 15.2017 22.2864 15.7467 21.5676 16.3735C18.5788 18.9081 17.1033 22.2783 17.075 26.6842V26.875H26.1076V13.8844H26.117ZM32.6905 13.6755C32.6905 12.3401 31.5555 11.25 30.1557 11.25C28.7559 11.25 27.6209 12.3401 27.6209 13.6755V26.8659H32.7V13.6755H32.6905Z" fill="#153AC7"/>
<path d="M39.2992 41.3118C39.3845 40.9567 39.7066 40.7138 40.0855 40.7138C41.0234 40.7138 42.075 39.2 42.075 37.0321C42.075 34.9856 41.1371 33.5279 40.2655 33.3597C39.9339 33.2943 39.6782 33.0233 39.6308 32.6775L39.6024 32.5H20.7881L20.7691 32.6869C20.7217 33.0233 20.466 33.3036 20.1344 33.369C19.2628 33.5372 18.325 34.995 18.325 37.0414C18.325 39.1906 19.3765 40.7044 20.3144 40.7231C20.6838 40.7231 20.9965 40.9754 21.0912 41.3305C21.8301 44.4048 23.9522 46.9185 26.7753 48.0492C27.9311 48.5164 29.0868 48.75 30.2236 48.75C30.3373 48.75 30.4605 48.75 30.5742 48.7407C31.7583 48.7033 32.9046 48.4136 34.0793 47.8716C36.6656 46.6195 38.5603 44.2273 39.2992 41.3118Z" fill="#35C2FF"/>
<path d="M42.9593 26.861C42.9316 22.3416 41.5005 18.8845 38.5831 16.2846C37.8445 15.623 37.0135 15.0453 36.118 14.57C35.5917 14.2998 35.0101 14.0482 34.3915 13.8339L34.1422 13.75V27.0567H42.9593V26.861ZM44.575 29.7031C44.575 28.8552 43.8917 28.1563 43.0424 28.1563H17.3575C16.5174 28.1563 15.825 28.8458 15.825 29.7031C15.825 30.5511 16.5082 31.25 17.3575 31.25H43.0424C43.8825 31.25 44.575 30.5511 44.575 29.7031Z" fill="#153AC7"/>
</svg>
