<svg width="60" height="60" viewBox="0 0 60 60" fill="none" xmlns="http://www.w3.org/2000/svg">
<rect x="2" y="2" width="56" height="56" rx="28" fill="#F8F9FD"/>
<rect x="2" y="2" width="56" height="56" rx="28" stroke="white" stroke-width="4"/>
<path d="M45.2483 27.1417C45.8317 27.0233 46.25 26.5117 46.25 25.9167V21.6667C46.25 20.0583 44.9417 18.75 43.3333 18.75H16.6667C15.0583 18.75 13.75 20.0583 13.75 21.6667V25.9167C13.75 26.51 14.1683 27.0233 14.7517 27.1417C16.1033 27.4167 17.0833 28.6183 17.0833 30C17.0833 31.3817 16.1033 32.5833 14.7517 32.8583C14.1683 32.9767 13.75 33.4883 13.75 34.0833V38.3333C13.75 39.9417 15.0583 41.25 16.6667 41.25H43.3333C44.9417 41.25 46.25 39.9417 46.25 38.3333V34.0833C46.25 33.49 45.8317 32.9767 45.2483 32.8583C43.8967 32.5833 42.9167 31.3817 42.9167 30C42.9167 28.6183 43.8967 27.4167 45.2483 27.1417Z" fill="#35C2FF"/>
<path d="M38.75 18.75H36.25V23.3333C36.25 24.0233 36.81 24.5833 37.5 24.5833C38.19 24.5833 38.75 24.0233 38.75 23.3333V18.75ZM37.5 27.0833C36.81 27.0833 36.25 27.6433 36.25 28.3333V31.6667C36.25 32.3567 36.81 32.9167 37.5 32.9167C38.19 32.9167 38.75 32.3567 38.75 31.6667V28.3333C38.75 27.6433 38.19 27.0833 37.5 27.0833ZM38.75 36.6667C38.75 35.9767 38.19 35.4167 37.5 35.4167C36.81 35.4167 36.25 35.9767 36.25 36.6667V41.25H38.75V36.6667Z" fill="#153AC7"/>
<path d="M25.3397 24.6281C25.4295 24.3517 25.8205 24.3517 25.9103 24.6281L27.1012 28.2932C27.1413 28.4168 27.2565 28.5005 27.3865 28.5005H31.2402C31.5308 28.5005 31.6517 28.8724 31.4165 29.0432L28.2988 31.3084C28.1937 31.3848 28.1497 31.5202 28.1898 31.6438L29.3807 35.3089C29.4705 35.5853 29.1542 35.8151 28.9191 35.6443L25.8013 33.3791C25.6962 33.3027 25.5538 33.3027 25.4487 33.3791L22.3309 35.6443C22.0958 35.8151 21.7795 35.5853 21.8693 35.3089L23.0602 31.6438C23.1003 31.5202 23.0563 31.3848 22.9512 31.3084L19.8335 29.0432C19.5983 28.8724 19.7192 28.5005 20.0098 28.5005H23.8635C23.9935 28.5005 24.1087 28.4168 24.1488 28.2932L25.3397 24.6281Z" fill="#153AC7"/>
</svg>
