<svg width="61" height="60" viewBox="0 0 61 60" fill="none" xmlns="http://www.w3.org/2000/svg">
<rect x="2.59998" y="2" width="56" height="56" rx="28" fill="#F8F9FD"/>
<rect x="2.59998" y="2" width="56" height="56" rx="28" stroke="white" stroke-width="4"/>
<path d="M22.2666 15.4167H18.9333C16.405 15.4167 14.35 17.4717 14.35 20V41.6667C14.35 43.275 15.6583 44.5833 17.2666 44.5833H23.9333C25.5416 44.5833 26.85 43.275 26.85 41.6667V20C26.85 17.4717 24.795 15.4167 22.2666 15.4167Z" fill="#35C2FF"/>
<path d="M43.9333 23.75H22.2666C19.7383 23.75 17.6833 25.805 17.6833 28.3333C17.6833 30.8617 19.7383 32.9167 22.2666 32.9167H43.9333C45.5416 32.9167 46.85 31.6083 46.85 30V26.6667C46.85 25.0583 45.5416 23.75 43.9333 23.75Z" fill="#153AC7"/>
<path d="M42.94 23.75C42.915 23.8883 42.8783 24.025 42.8033 24.1533L37.72 32.9167H34.9283C34.9533 32.7783 34.99 32.6417 35.065 32.5133L40.1483 23.75H42.94ZM30.22 32.9167L35.3033 24.1533C35.3783 24.025 35.415 23.8867 35.44 23.75H32.6483L27.565 32.5133C27.4899 32.6417 27.4533 32.7783 27.4283 32.9167H30.22Z" fill="#35C2FF"/>
</svg>
