<svg width="61" height="60" viewBox="0 0 61 60" fill="none" xmlns="http://www.w3.org/2000/svg">
<rect x="2.80005" y="2" width="56" height="56" rx="28" fill="#F8F9FD"/>
<rect x="2.80005" y="2" width="56" height="56" rx="28" stroke="#E8EBF9" stroke-width="4"/>
<path d="M18.6107 31.1344C18.6107 24.35 24.1051 18.8501 30.8828 18.8501C37.6604 18.8501 43.1548 24.35 43.1548 31.1344V43.1573H18.6107V31.1344Z" fill="#35C2FF"/>
<path d="M15.4646 42.5095C15.4646 40.6481 16.9721 39.1391 18.8317 39.1391H42.9337C44.7933 39.1391 46.3008 40.6481 46.3008 42.5095C46.3008 44.371 44.7933 45.88 42.9337 45.88H18.8317C16.9721 45.88 15.4646 44.371 15.4646 42.5095Z" fill="#153AC7"/>
<path fill-rule="evenodd" clip-rule="evenodd" d="M30.8404 23.0773C30.0603 23.0773 29.4278 23.7103 29.4278 24.4913V31.4084C29.4278 32.1893 30.0603 32.8224 30.8404 32.8224C31.6205 32.8224 32.2529 32.1893 32.2529 31.4084V24.4913C32.2529 23.7103 31.6205 23.0773 30.8404 23.0773ZM30.8411 34.9919C30.0314 34.9919 29.3751 35.6489 29.3751 36.4594C29.3751 37.2699 30.0314 37.9269 30.8411 37.9269C31.6508 37.9269 32.3071 37.2699 32.3071 36.4594C32.3071 35.6489 31.6508 34.9919 30.8411 34.9919Z" fill="#153AC7"/>
<path d="M29.5824 13.628C29.5824 12.9091 30.1646 12.3264 30.8827 12.3264C31.6009 12.3264 32.183 12.9091 32.183 13.628V16.0851C32.183 16.804 31.6009 17.3867 30.8827 17.3867C30.1646 17.3867 29.5824 16.804 29.5824 16.0851V13.628Z" fill="#153AC7"/>
<path d="M41.6001 17.161C42.1079 16.6527 42.9312 16.6527 43.439 17.161C43.9468 17.6694 43.9468 18.4935 43.439 19.0018L41.7032 20.7393C41.1955 21.2476 40.3722 21.2476 39.8643 20.7393C39.3566 20.2309 39.3566 19.4068 39.8643 18.8985L41.6001 17.161Z" fill="#153AC7"/>
<path d="M48.1134 27.4826C48.8316 27.4826 49.4137 28.0654 49.4137 28.7842C49.4137 29.5031 48.8316 30.0858 48.1134 30.0858H45.6587C44.9406 30.0858 44.3584 29.5031 44.3584 28.7842C44.3584 28.0654 44.9406 27.4826 45.6587 27.4826H48.1134Z" fill="#153AC7"/>
<path d="M19.9723 17.161C19.4645 16.6527 18.6412 16.6527 18.1334 17.161C17.6256 17.6694 17.6256 18.4935 18.1334 19.0018L19.8691 20.7393C20.3769 21.2476 21.2003 21.2476 21.7081 20.7393C22.2158 20.2309 22.2158 19.4068 21.7081 18.8985L19.9723 17.161Z" fill="#153AC7"/>
<path d="M13.459 27.4827C12.7408 27.4827 12.1587 28.0654 12.1587 28.7843C12.1587 29.5031 12.7408 30.0859 13.459 30.0859H15.9137C16.6318 30.0859 17.214 29.5031 17.214 28.7843C17.214 28.0654 16.6318 27.4827 15.9137 27.4827H13.459Z" fill="#153AC7"/>
</svg>
