<svg width="61" height="60" viewBox="0 0 61 60" fill="none" xmlns="http://www.w3.org/2000/svg">
<rect x="2.59998" y="2" width="56" height="56" rx="28" fill="#F8F9FD"/>
<rect x="2.59998" y="2" width="56" height="56" rx="28" stroke="#E8EBF9" stroke-width="4"/>
<path d="M45.9846 17.5H15.2154C13.3567 17.5 11.85 19.0015 11.85 20.8537V40.0177C11.85 41.8699 13.3567 43.3714 15.2154 43.3714H45.9846C47.8432 43.3714 49.35 41.8699 49.35 40.0177V20.8537C49.35 19.0015 47.8432 17.5 45.9846 17.5Z" fill="#35C2FF"/>
<path d="M28.6769 38.1013V36.4499C28.6769 33.1293 26.0943 30.4357 22.9077 30.4357C19.7223 30.4357 17.1384 33.1279 17.1384 36.4499V38.1013H28.6769Z" fill="#153AC7"/>
<path d="M26.7538 26.6029C26.7538 24.4857 25.0322 22.7701 22.9077 22.7701C20.7831 22.7701 19.0615 24.4857 19.0615 26.6029C19.0615 28.7201 20.7831 30.4357 22.9077 30.4357C25.0322 30.4357 26.7538 28.7201 26.7538 26.6029Z" fill="#153AC7"/>
<path d="M42.1384 31.873H34.4461C34.0636 31.873 33.6967 31.7216 33.4262 31.452C33.1557 31.1825 33.0038 30.8169 33.0038 30.4357C33.0038 30.0545 33.1557 29.6889 33.4262 29.4194C33.6967 29.1499 34.0636 28.9984 34.4461 28.9984H42.1384C42.5209 28.9984 42.8878 29.1499 43.1583 29.4194C43.4288 29.6889 43.5807 30.0545 43.5807 30.4357C43.5807 30.8169 43.4288 31.1825 43.1583 31.452C42.8878 31.7216 42.5209 31.873 42.1384 31.873ZM42.1384 37.6222H34.4461C34.0636 37.6222 33.6967 37.4708 33.4262 37.2012C33.1557 36.9317 33.0038 36.5661 33.0038 36.1849C33.0038 35.8037 33.1557 35.4381 33.4262 35.1686C33.6967 34.8991 34.0636 34.7476 34.4461 34.7476H42.1384C42.5209 34.7476 42.8878 34.8991 43.1583 35.1686C43.4288 35.4381 43.5807 35.8037 43.5807 36.1849C43.5807 36.5661 43.4288 36.9317 43.1583 37.2012C42.8878 37.4708 42.5209 37.6222 42.1384 37.6222ZM42.1384 26.1238H34.4461C34.0636 26.1238 33.6967 25.9724 33.4262 25.7028C33.1557 25.4333 33.0038 25.0677 33.0038 24.6865C33.0038 24.3053 33.1557 23.9397 33.4262 23.6702C33.6967 23.4007 34.0636 23.2492 34.4461 23.2492H42.1384C42.5209 23.2492 42.8878 23.4007 43.1583 23.6702C43.4288 23.9397 43.5807 24.3053 43.5807 24.6865C43.5807 25.0677 43.4288 25.4333 43.1583 25.7028C42.8878 25.9724 42.5209 26.1238 42.1384 26.1238Z" fill="#153AC7"/>
</svg>
