<svg width="61" height="60" viewBox="0 0 61 60" fill="none" xmlns="http://www.w3.org/2000/svg">
<rect x="2.40015" y="2" width="56" height="56" rx="28" fill="#F8F9FD"/>
<rect x="2.40015" y="2" width="56" height="56" rx="28" stroke="#E8EBF9" stroke-width="4"/>
<path d="M37.4681 34.3036L34.9113 36.8604L38.1384 40.0876L40.6953 37.5307L37.4681 34.3036Z" fill="#35C2FF"/>
<path d="M36.2608 16.508C30.9168 11.164 22.2522 11.164 16.9082 16.508C11.5641 21.8521 11.5641 30.5166 16.9082 35.8607C22.2524 41.2048 30.9168 41.2048 36.2608 35.8607C41.605 30.5165 41.605 21.8521 36.2608 16.508ZM33.8897 33.4895C29.8901 37.4891 23.4057 37.4891 19.4062 33.4895C15.4067 29.4901 15.4067 23.0056 19.4062 19.0061C23.4057 15.0066 29.8901 15.0066 33.8897 19.0061C37.8891 23.0056 37.8891 29.49 33.8897 33.4895Z" fill="#35C2FF"/>
<path d="M41.6631 36.0085L36.7976 40.874L43.4236 47.5L48.2891 42.6345L41.6631 36.0085Z" fill="#153AC7"/>
<path d="M34.7399 29.6721C32.8335 26.9759 29.0276 21.5565 27.3565 19.1759C26.9579 18.608 26.1174 18.608 25.7188 19.1759C24.0477 21.5564 20.2417 26.9759 18.3354 29.6721C17.8667 30.3351 18.3414 31.25 19.1533 31.25H33.922C34.7339 31.25 35.2086 30.3351 34.7399 29.6721Z" fill="#153AC7"/>
<path d="M26.219 28.6664C26.084 28.5408 26.0165 28.3857 26.0165 28.2008C26.0165 28.016 26.084 27.8524 26.219 27.7246C26.354 27.5966 26.5283 27.5327 26.7414 27.5327C26.9545 27.5327 27.1218 27.5966 27.2568 27.7246C27.3919 27.8526 27.4594 28.0115 27.4594 28.2008C27.4594 28.3902 27.3919 28.5408 27.2568 28.6664C27.1218 28.792 26.95 28.8547 26.7414 28.8547C26.5328 28.8547 26.354 28.792 26.219 28.6664ZM27.3814 23.63L27.2391 27.0349H26.2084L26.0663 23.63H27.3813H27.3814Z" fill="white"/>
</svg>
