<svg width="61" height="60" viewBox="0 0 61 60" fill="none" xmlns="http://www.w3.org/2000/svg">
<rect x="2.19995" y="2" width="56" height="56" rx="28" fill="#F8F9FD"/>
<rect x="2.19995" y="2" width="56" height="56" rx="28" stroke="#E8EBF9" stroke-width="4"/>
<path d="M43 26.8011H30.2V46.8C30.5723 46.7996 30.9395 46.7127 31.2726 46.5461L42.0296 41.1082C42.5646 40.8409 43.0141 40.4291 43.327 39.9195C43.6399 39.4099 43.8037 38.8227 43.8 38.2247V27.601C43.8 27.496 43.7793 27.3919 43.7391 27.2949C43.6989 27.1978 43.64 27.1096 43.5657 27.0353C43.4914 26.961 43.4032 26.9021 43.3061 26.8619C43.209 26.8218 43.105 26.8011 43 26.8011Z" fill="#153AC7"/>
<path d="M30.1999 26.8011H17.3999C17.2949 26.8011 17.1908 26.8218 17.0938 26.8619C16.9967 26.9021 16.9085 26.961 16.8342 27.0353C16.7599 27.1096 16.701 27.1978 16.6608 27.2949C16.6206 27.3919 16.5999 27.496 16.5999 27.601V38.2247C16.596 38.8222 16.7594 39.4088 17.0718 39.9181C17.3841 40.4275 17.8328 40.8391 18.3671 41.1066L29.1296 46.5473C29.462 46.7132 29.8284 46.7997 30.1999 46.8V26.8011Z" fill="#153AC7"/>
<path d="M47.2414 21.4174L32.2671 13.7006C31.6277 13.3716 30.919 13.2 30.1999 13.2C29.4808 13.2 28.7721 13.3716 28.1327 13.7006L13.1585 21.4174C12.7507 21.6183 12.4074 21.9294 12.1673 22.3153C11.9272 22.7013 11.7999 23.1467 11.7999 23.6013C11.7999 24.0558 11.9272 24.5013 12.1673 24.8872C12.4074 25.2732 12.7507 25.5842 13.1585 25.7851L28.1327 33.5019C28.7721 33.831 29.4808 34.0026 30.1999 34.0026C30.919 34.0026 31.6277 33.831 32.2671 33.5019L47.2414 25.7851C47.6491 25.5842 47.9925 25.2732 48.2326 24.8872C48.4727 24.5013 48.5999 24.0558 48.5999 23.6013C48.5999 23.1467 48.4727 22.7013 48.2326 22.3153C47.9925 21.9294 47.6491 21.6183 47.2414 21.4174Z" fill="#35C2FF"/>
<path d="M22.1999 38.0005C22.0948 38.0005 21.9908 37.9798 21.8937 37.9397C21.7967 37.8995 21.7085 37.8406 21.6342 37.7663C21.5599 37.692 21.501 37.6038 21.4608 37.5067C21.4206 37.4097 21.3999 37.3056 21.3999 37.2006V30.001C21.4 29.8628 21.4358 29.7271 21.5038 29.6069C21.5718 29.4867 21.6698 29.3862 21.7882 29.315L29.7882 24.5153C29.9701 24.4079 30.187 24.3768 30.3917 24.4287C30.5964 24.4807 30.7722 24.6114 30.8809 24.7925C30.9896 24.9736 31.0222 25.1902 30.9718 25.3953C30.9213 25.6004 30.7919 25.7771 30.6116 25.8871L22.9999 30.454V37.2006C22.9999 37.3056 22.9792 37.4097 22.939 37.5067C22.8989 37.6038 22.8399 37.692 22.7656 37.7663C22.6913 37.8406 22.6031 37.8995 22.5061 37.9397C22.409 37.9798 22.305 38.0005 22.1999 38.0005Z" fill="#35C2FF"/>
<path d="M24.8609 41.8838L23.9546 37.8075C23.8658 37.4084 23.6435 37.0515 23.3245 36.7957C23.0055 36.5399 22.6088 36.4005 22.1999 36.4005C21.791 36.4005 21.3944 36.5399 21.0753 36.7957C20.7563 37.0515 20.5341 37.4084 20.4452 37.8075L19.539 41.8838C19.4506 42.2822 19.4528 42.6954 19.5454 43.0928C19.638 43.4903 19.8187 43.8618 20.0741 44.1801C20.3295 44.4984 20.6531 44.7553 21.021 44.9318C21.389 45.1083 21.7918 45.1999 22.1999 45.1999C22.608 45.1999 23.0109 45.1083 23.3788 44.9318C23.7468 44.7553 24.0704 44.4984 24.3258 44.1801C24.5812 43.8618 24.7618 43.4903 24.8545 43.0928C24.9471 42.6954 24.9493 42.2822 24.8609 41.8838Z" fill="#35C2FF"/>
<path d="M23.8 38.0005H20.6C20.4943 38.0015 20.3894 37.9816 20.2914 37.9419C20.1934 37.9022 20.1043 37.8434 20.0291 37.769C19.954 37.6946 19.8944 37.6061 19.8537 37.5085C19.813 37.4109 19.792 37.3062 19.792 37.2005C19.792 37.0948 19.813 36.9901 19.8537 36.8925C19.8944 36.7949 19.954 36.7064 20.0291 36.632C20.1043 36.5576 20.1934 36.4989 20.2914 36.4591C20.3894 36.4194 20.4943 36.3995 20.6 36.4006H23.8C23.9057 36.3995 24.0106 36.4194 24.1086 36.4591C24.2066 36.4989 24.2957 36.5576 24.3708 36.632C24.446 36.7064 24.5056 36.7949 24.5463 36.8925C24.587 36.9901 24.608 37.0948 24.608 37.2005C24.608 37.3062 24.587 37.4109 24.5463 37.5085C24.5056 37.6061 24.446 37.6946 24.3708 37.769C24.2957 37.8434 24.2066 37.9022 24.1086 37.9419C24.0106 37.9816 23.9057 38.0015 23.8 38.0005Z" fill="#35C2FF"/>
</svg>
