<svg width="54" height="54" viewBox="0 0 54 54" fill="none" xmlns="http://www.w3.org/2000/svg">
<rect x="0.421875" y="0.421875" width="53.1562" height="53.1562" rx="26.5781" fill="#F8F9FD"/>
<rect x="0.421875" y="0.421875" width="53.1562" height="53.1562" rx="26.5781" stroke="#E8EBF9" stroke-width="0.84375"/>
<path d="M20.7863 32.325V28.8994H17.445V27.4144H20.7863V24.09H22.3388V27.4144H25.68V28.8994H22.3388V32.325H20.7863ZM31.8243 33.1688C31.0481 33.1688 30.2943 33.0506 29.5631 32.8144C28.8318 32.5669 28.2356 32.235 27.7743 31.8187L28.4831 30.165C29.5068 30.9525 30.6093 31.3462 31.7906 31.3462C32.4993 31.3462 33.0506 31.1662 33.4443 30.8062C33.8493 30.435 34.0518 29.94 34.0518 29.3212C34.0518 28.6912 33.8606 28.185 33.4781 27.8025C33.0956 27.4087 32.5725 27.2119 31.9087 27.2119C30.9637 27.2119 30.1818 27.5887 29.5631 28.3425H28.1118V21.1031H35.4187V22.8919H30.2212V26.115C30.8175 25.665 31.5487 25.44 32.415 25.44C33.1687 25.44 33.8212 25.6031 34.3725 25.9294C34.935 26.2444 35.3681 26.6887 35.6718 27.2625C35.9868 27.825 36.1443 28.4831 36.1443 29.2369C36.1443 30.0131 35.97 30.6994 35.6212 31.2956C35.2725 31.8806 34.7718 32.3419 34.1193 32.6794C33.4781 33.0056 32.7131 33.1688 31.8243 33.1688Z" fill="#919BCE"/>
</svg>
