<svg width="16" height="24" viewBox="0 0 16 24" fill="none" xmlns="http://www.w3.org/2000/svg">
<path d="M8.00635 15.0417C9.26499 14.0246 10.2153 13.0425 10.8574 12.0954C11.4994 11.1482 11.8204 10.2678 11.8204 9.45411C11.8204 8.74215 11.6901 8.13826 11.4295 7.64243C11.1688 7.1466 10.8478 6.74295 10.4664 6.43147C10.085 6.11998 9.67182 5.89114 9.22685 5.74493C8.78187 5.59873 8.37504 5.52563 8.00635 5.52563C7.63765 5.52563 7.23082 5.59555 6.78585 5.7354C6.34087 5.87525 5.92768 6.10409 5.54627 6.42193C5.16487 6.73977 4.84385 7.1466 4.58322 7.64243C4.3226 8.13826 4.19228 8.74851 4.19228 9.47318C4.19228 10.2741 4.5133 11.1482 5.15533 12.0954C5.79737 13.0425 6.7477 14.0246 8.00635 15.0417ZM8.00635 16.6818C7.89192 16.6818 7.7775 16.6627 7.66308 16.6246C7.54866 16.5864 7.44695 16.5356 7.35795 16.472C5.76876 15.2133 4.58958 14.0087 3.82041 12.8582C3.05124 11.7076 2.66666 10.5729 2.66666 9.45411C2.66666 8.56416 2.82875 7.7791 3.15295 7.09893C3.47714 6.41875 3.89351 5.84982 4.40206 5.39213C4.9106 4.93445 5.48271 4.588 6.11838 4.3528C6.75406 4.1176 7.38338 4 8.00635 4C8.62931 4 9.25863 4.1176 9.89431 4.3528C10.53 4.588 11.1021 4.93445 11.6106 5.39213C12.1192 5.84982 12.5355 6.41875 12.8597 7.09893C13.1839 7.7791 13.346 8.56416 13.346 9.45411C13.346 10.5729 12.9615 11.7076 12.1923 12.8582C11.4231 14.0087 10.2439 15.2133 8.65474 16.472C8.56574 16.5356 8.46403 16.5864 8.34961 16.6246C8.23519 16.6627 8.12077 16.6818 8.00635 16.6818ZM8.00635 10.8653C8.43861 10.8653 8.80094 10.7159 9.09335 10.4172C9.38577 10.1184 9.53197 9.75924 9.53197 9.33969C9.53197 8.92014 9.38259 8.56099 9.08382 8.26222C8.78505 7.96345 8.42589 7.81406 8.00635 7.81406C7.59951 7.81406 7.24353 7.96345 6.93841 8.26222C6.63328 8.56099 6.48072 8.92014 6.48072 9.33969C6.48072 9.75924 6.6301 10.1184 6.92887 10.4172C7.22764 10.7159 7.5868 10.8653 8.00635 10.8653ZM3.42947 20C3.21334 20 3.03217 19.9269 2.88597 19.7807C2.73976 19.6345 2.66666 19.4533 2.66666 19.2372C2.66666 19.0338 2.73976 18.859 2.88597 18.7128C3.03217 18.5665 3.21334 18.4934 3.42947 18.4934H12.5832C12.7994 18.4934 12.9805 18.5665 13.1267 18.7128C13.2729 18.859 13.346 19.0401 13.346 19.2563C13.346 19.4724 13.2729 19.6504 13.1267 19.7902C12.9805 19.9301 12.7994 20 12.5832 20H3.42947Z" fill="#686687"/>
</svg>
