<svg width="54" height="54" viewBox="0 0 54 54" fill="none" xmlns="http://www.w3.org/2000/svg">
<rect x="0.5" y="0.5" width="53" height="53" rx="26.5" fill="#F8F9FD"/>
<rect x="0.5" y="0.5" width="53" height="53" rx="26.5" stroke="#E8EBF9"/>
<rect x="2.25" y="2.25" width="49.5" height="49.5" rx="12.2727" fill="#F8F9FD"/>
<path d="M39.4369 24.6687C39.9127 24.5722 40.2539 24.1548 40.2539 23.6695V20.2031C40.2539 18.8913 39.1868 17.8242 37.875 17.8242H16.125C14.8132 17.8242 13.7461 18.8913 13.7461 20.2031V23.6695C13.7461 24.1535 14.0873 24.5722 14.5631 24.6687C15.6655 24.893 16.4648 25.8731 16.4648 27C16.4648 28.1269 15.6655 29.107 14.5631 29.3313C14.0873 29.4278 13.7461 29.8452 13.7461 30.3305V33.7969C13.7461 35.1087 14.8132 36.1758 16.125 36.1758H37.875C39.1868 36.1758 40.2539 35.1087 40.2539 33.7969V30.3305C40.2539 29.8465 39.9127 29.4278 39.4369 29.3313C38.3345 29.107 37.5352 28.1269 37.5352 27C37.5352 25.8731 38.3345 24.893 39.4369 24.6687Z" fill="#CBD4FF"/>
<path d="M34.1367 17.8242H32.0977V21.5625C32.0977 22.1253 32.5544 22.582 33.1172 22.582C33.68 22.582 34.1367 22.1253 34.1367 21.5625V17.8242ZM33.1172 24.6211C32.5544 24.6211 32.0977 25.0778 32.0977 25.6406V28.3594C32.0977 28.9222 32.5544 29.3789 33.1172 29.3789C33.68 29.3789 34.1367 28.9222 34.1367 28.3594V25.6406C34.1367 25.0778 33.68 24.6211 33.1172 24.6211ZM34.1367 32.4375C34.1367 31.8747 33.68 31.418 33.1172 31.418C32.5544 31.418 32.0977 31.8747 32.0977 32.4375V36.1758H34.1367V32.4375Z" fill="#153AC7"/>
<path d="M23.2711 22.3963C23.3217 22.2408 23.5416 22.2408 23.5921 22.3963L24.6527 25.6604C24.6753 25.7299 24.7401 25.777 24.8132 25.777H28.2453C28.4087 25.777 28.4767 25.9862 28.3444 26.0822L25.5678 28.0996C25.5087 28.1425 25.484 28.2187 25.5065 28.2882L26.5671 31.5523C26.6176 31.7078 26.4397 31.8371 26.3074 31.741L23.5308 29.7237C23.4717 29.6807 23.3916 29.6807 23.3325 29.7237L20.5559 31.741C20.4236 31.8371 20.2457 31.7078 20.2962 31.5523L21.3567 28.2882C21.3793 28.2187 21.3546 28.1425 21.2954 28.0996L18.5188 26.0822C18.3866 25.9862 18.4546 25.777 18.618 25.777H22.0501C22.1232 25.777 22.188 25.7299 22.2106 25.6604L23.2711 22.3963Z" fill="#153AC7"/>
</svg>
