<svg width="14" height="15" viewBox="0 0 14 15" fill="none" xmlns="http://www.w3.org/2000/svg">
<g clip-path="url(#clip0_1_4527)">
<path d="M7.00554 10.1615C8.10685 9.27155 8.9384 8.4122 9.50018 7.58343C10.062 6.75467 10.3428 5.98431 10.3428 5.27235C10.3428 4.64938 10.2288 4.12098 10.0008 3.68713C9.77272 3.25328 9.49184 2.90008 9.1581 2.62753C8.82437 2.35499 8.46283 2.15475 8.07348 2.02682C7.68413 1.89889 7.32815 1.83492 7.00554 1.83492C6.68294 1.83492 6.32696 1.89611 5.9376 2.01847C5.54825 2.14084 5.18671 2.34108 4.85298 2.61919C4.51925 2.8973 4.23836 3.25328 4.01031 3.68713C3.78226 4.12098 3.66824 4.65495 3.66824 5.28903C3.66824 5.98987 3.94913 6.75467 4.51091 7.58343C5.07269 8.4122 5.90423 9.27155 7.00554 10.1615ZM7.00554 11.5965C6.90542 11.5965 6.8053 11.5799 6.70518 11.5465C6.60507 11.5131 6.51607 11.4686 6.4382 11.413C5.04766 10.3117 4.01587 9.25765 3.34285 8.25089C2.66982 7.24414 2.33331 6.25129 2.33331 5.27235C2.33331 4.49364 2.47515 3.80671 2.75882 3.21156C3.04249 2.61641 3.40681 2.11859 3.85179 1.71812C4.29676 1.31764 4.79736 1.0145 5.35357 0.808701C5.90979 0.6029 6.46045 0.5 7.00554 0.5C7.55064 0.5 8.10129 0.6029 8.65751 0.808701C9.21373 1.0145 9.71432 1.31764 10.1593 1.71812C10.6043 2.11859 10.9686 2.61641 11.2523 3.21156C11.5359 3.80671 11.6778 4.49364 11.6778 5.27235C11.6778 6.25129 11.3413 7.24414 10.6682 8.25089C9.99521 9.25765 8.96343 10.3117 7.57288 11.413C7.49501 11.4686 7.40602 11.5131 7.3059 11.5465C7.20578 11.5799 7.10566 11.5965 7.00554 11.5965ZM7.00554 6.50715C7.38377 6.50715 7.70081 6.37644 7.95667 6.11502C8.21253 5.8536 8.34046 5.53933 8.34046 5.17223C8.34046 4.80513 8.20975 4.49086 7.94833 4.22944C7.68691 3.96802 7.37265 3.83731 7.00554 3.83731C6.64956 3.83731 6.33808 3.96802 6.0711 4.22944C5.80411 4.49086 5.67062 4.80513 5.67062 5.17223C5.67062 5.53933 5.80133 5.8536 6.06275 6.11502C6.32417 6.37644 6.63844 6.50715 7.00554 6.50715ZM3.00077 14.5C2.81166 14.5 2.65314 14.436 2.52521 14.3081C2.39728 14.1802 2.33331 14.0217 2.33331 13.8325C2.33331 13.6545 2.39728 13.5016 2.52521 13.3737C2.65314 13.2457 2.81166 13.1818 3.00077 13.1818H11.0103C11.1994 13.1818 11.3579 13.2457 11.4859 13.3737C11.6138 13.5016 11.6778 13.6601 11.6778 13.8492C11.6778 14.0383 11.6138 14.1941 11.4859 14.3164C11.3579 14.4388 11.1994 14.5 11.0103 14.5H3.00077Z" fill="#030037"/>
</g>
<defs>
<clipPath id="clip0_1_4527">
<rect width="14" height="14" fill="white" transform="translate(0 0.5)"/>
</clipPath>
</defs>
</svg>
