<svg width="16" height="16" viewBox="0 0 16 16" fill="none" xmlns="http://www.w3.org/2000/svg">
<g clip-path="url(#clip0_199_454)">
<path d="M1.5247 14.2453C1.11296 14.2453 0.7559 14.0941 0.453528 13.7917C0.151156 13.4893 -3.05176e-05 13.1323 -3.05176e-05 12.7205V2.87736C-3.05176e-05 2.45275 0.151156 2.08926 0.453528 1.78689C0.7559 1.48451 1.11296 1.33333 1.5247 1.33333H14.4559C14.8805 1.33333 15.244 1.48451 15.5464 1.78689C15.8488 2.08926 16 2.45275 16 2.87736V12.7205C16 13.1323 15.8488 13.4893 15.5464 13.7917C15.244 14.0941 14.8805 14.2453 14.4559 14.2453H1.5247ZM14.4559 4.18978L8.41493 8.20426C8.33773 8.24286 8.26696 8.27502 8.20262 8.30076C8.13829 8.32649 8.06752 8.33936 7.99032 8.33936C7.91312 8.33936 7.84235 8.32649 7.77802 8.30076C7.71368 8.27502 7.64291 8.24286 7.56571 8.20426L1.5247 4.18978V12.7205H14.4559V4.18978ZM7.99032 7.08484L14.3787 2.87736H1.6212L7.99032 7.08484ZM1.5247 4.18978V4.36349C1.5247 4.32488 1.5247 4.26377 1.5247 4.18013C1.5247 4.0965 1.5247 4.00964 1.5247 3.91958C1.5247 3.71371 1.5247 3.54965 1.5247 3.42742C1.5247 3.30518 1.5247 3.31483 1.5247 3.45637V2.87736V3.43707C1.5247 3.32127 1.5247 3.31483 1.5247 3.41777C1.5247 3.5207 1.5247 3.68154 1.5247 3.90028C1.5247 4.00321 1.5247 4.09328 1.5247 4.17048C1.5247 4.24768 1.5247 4.31202 1.5247 4.36349V4.18978V12.7205V4.18978Z" fill="#686687"/>
</g>
<defs>
<clipPath id="clip0_199_454">
<rect width="16" height="16" fill="white"/>
</clipPath>
</defs>
</svg>
