<svg width="16" height="16" viewBox="0 0 16 16" fill="none" xmlns="http://www.w3.org/2000/svg">
<g clip-path="url(#clip0_199_459)">
<path d="M14.4323 10.9108L12.17 10.6526C11.6267 10.5902 11.0923 10.7772 10.7093 11.1602L9.07041 12.7991C6.54978 11.5165 4.4834 9.45904 3.20082 6.9295L4.84858 5.28174C5.23157 4.89875 5.41862 4.36434 5.35627 3.82102L5.09797 1.57651C4.99109 0.676918 4.23401 0 3.32551 0H1.78464C0.778165 0 -0.0590758 0.837241 0.0032719 1.84371C0.475333 9.45013 6.55869 15.5246 14.1562 15.9966C15.1627 16.059 15.9999 15.2217 15.9999 14.2153V12.6744C16.0088 11.7748 15.3319 11.0177 14.4323 10.9108Z" fill="#686687"/>
</g>
<defs>
<clipPath id="clip0_199_459">
<rect width="16" height="16" fill="white"/>
</clipPath>
</defs>
</svg>
