<svg width="48" height="53" viewBox="0 0 48 53" fill="none" xmlns="http://www.w3.org/2000/svg">
<g clip-path="url(#clip0_1_4480)">
<path d="M36.4126 34.7708L34.2956 32.6538V24.4487C34.2956 19.4108 31.6044 15.1933 26.911 14.0774V12.9615C26.911 11.5995 25.8115 10.5 24.4495 10.5C23.0874 10.5 21.9879 11.5995 21.9879 12.9615V14.0774C17.2782 15.1933 14.6033 19.3944 14.6033 24.4487V32.6538L12.4864 34.7708C11.4526 35.8046 12.1746 37.5769 13.6351 37.5769H35.2474C36.7244 37.5769 37.4464 35.8046 36.4126 34.7708ZM31.0136 34.2949H17.8854V24.4487C17.8854 20.379 20.3633 17.0641 24.4495 17.0641C28.5356 17.0641 31.0136 20.379 31.0136 24.4487V34.2949ZM24.4495 42.5C26.2546 42.5 27.7315 41.0231 27.7315 39.2179H21.1674C21.1674 41.0231 22.6279 42.5 24.4495 42.5Z" fill="#686687"/>
</g>
<defs>
<clipPath id="clip0_1_4480">
<rect width="32" height="32" fill="white" transform="translate(8 10.5)"/>
</clipPath>
</defs>
</svg>
