<svg width="48" height="48" viewBox="0 0 48 48" fill="none" xmlns="http://www.w3.org/2000/svg">
<g clip-path="url(#clip0_85_552)">
<path d="M25.4733 34H22.144C21.9028 34 21.6856 33.9276 21.4926 33.7829C21.2996 33.6381 21.187 33.4451 21.1549 33.2039L20.793 30.8637C20.5357 30.7672 20.2582 30.6345 19.9607 30.4656C19.6631 30.2967 19.4098 30.1238 19.2007 29.9469L17.0536 30.9602C16.8284 31.0728 16.5992 31.0889 16.366 31.0084C16.1328 30.928 15.9518 30.7752 15.8232 30.5501L14.1344 27.5344C14.0057 27.3253 13.9695 27.1041 14.0258 26.8709C14.0821 26.6377 14.2067 26.4407 14.3998 26.2799L16.4022 24.8323C16.37 24.7197 16.3499 24.583 16.3418 24.4222C16.3338 24.2614 16.3298 24.1246 16.3298 24.0121C16.3298 23.8995 16.3338 23.7628 16.3418 23.6019C16.3499 23.4411 16.37 23.3044 16.4022 23.1918L14.3998 21.7201C14.2067 21.5754 14.0821 21.3824 14.0258 21.1411C13.9695 20.8999 14.0057 20.6828 14.1344 20.4897L15.8232 17.4741C15.9518 17.265 16.1328 17.1202 16.366 17.0398C16.5992 16.9594 16.8284 16.9674 17.0536 17.0639L19.2248 18.0772C19.4339 17.9003 19.6832 17.7314 19.9727 17.5706C20.2622 17.4097 20.5357 17.2891 20.793 17.2087L21.1549 14.8203C21.187 14.579 21.2996 14.382 21.4926 14.2292C21.6856 14.0764 21.9028 14 22.144 14H25.4733C25.7146 14 25.9317 14.0764 26.1247 14.2292C26.3177 14.382 26.4303 14.579 26.4625 14.8203L26.8244 17.1846C27.0817 17.2811 27.3591 17.4057 27.6567 17.5585C27.9542 17.7113 28.2076 17.8842 28.4166 18.0772L30.5638 17.0639C30.789 16.9674 31.0182 16.9554 31.2514 17.0277C31.4846 17.1001 31.6655 17.2489 31.7942 17.4741L33.5071 20.4656C33.6358 20.6747 33.672 20.8999 33.6157 21.1411C33.5594 21.3824 33.4267 21.5754 33.2176 21.7201L31.2152 23.1435C31.2313 23.2722 31.2474 23.417 31.2634 23.5778C31.2795 23.7386 31.2876 23.8834 31.2876 24.0121C31.2876 24.1407 31.2795 24.2815 31.2634 24.4343C31.2474 24.5871 31.2313 24.7278 31.2152 24.8565L33.2176 26.2799C33.4106 26.4407 33.5353 26.6377 33.5915 26.8709C33.6478 27.1041 33.6197 27.3253 33.5071 27.5344L31.7942 30.5501C31.6655 30.7752 31.4846 30.928 31.2514 31.0084C31.0182 31.0889 30.789 31.0728 30.5638 30.9602L28.3925 29.9469C28.1834 30.1238 27.9381 30.3008 27.6567 30.4777C27.3752 30.6546 27.0978 30.7833 26.8244 30.8637L26.4625 33.2039C26.4303 33.4451 26.3177 33.6381 26.1247 33.7829C25.9317 33.9276 25.7146 34 25.4733 34ZM23.7846 27.1484C24.6531 27.1484 25.3929 26.8428 26.0041 26.2316C26.6153 25.6204 26.9209 24.8806 26.9209 24.0121C26.9209 23.1435 26.6153 22.4037 26.0041 21.7925C25.3929 21.1813 24.6531 20.8758 23.7846 20.8758C22.916 20.8758 22.1762 21.1813 21.565 21.7925C20.9538 22.4037 20.6482 23.1435 20.6482 24.0121C20.6482 24.8806 20.9538 25.6204 21.565 26.2316C22.1762 26.8428 22.916 27.1484 23.7846 27.1484ZM23.7846 25.7008C23.302 25.7008 22.9 25.536 22.5783 25.2063C22.2566 24.8766 22.0958 24.4785 22.0958 24.0121C22.0958 23.5456 22.2566 23.1476 22.5783 22.8179C22.9 22.4881 23.302 22.3233 23.7846 22.3233C24.251 22.3233 24.649 22.4881 24.9788 22.8179C25.3085 23.1476 25.4733 23.5456 25.4733 24.0121C25.4733 24.4785 25.3085 24.8766 24.9788 25.2063C24.649 25.536 24.251 25.7008 23.7846 25.7008ZM22.8678 32.0941H24.7496L25.0873 29.392C25.6342 29.2634 26.1529 29.0623 26.6434 28.7889C27.134 28.5155 27.5722 28.1777 27.9583 27.7756L30.5156 28.8854L31.3599 27.3173L29.1163 25.6767C29.1806 25.4033 29.2329 25.1299 29.2731 24.8565C29.3133 24.583 29.3334 24.3016 29.3334 24.0121C29.3334 23.7226 29.3173 23.4411 29.2852 23.1677C29.253 22.8942 29.1967 22.6208 29.1163 22.3474L31.3599 20.7069L30.5156 19.1387L27.9583 20.2485C27.5883 19.8142 27.1621 19.4483 26.6796 19.1508C26.1971 18.8532 25.6663 18.6723 25.0873 18.608L24.7496 15.93H22.8678L22.53 18.608C21.9671 18.7045 21.4404 18.8975 20.9498 19.187C20.4593 19.4765 20.021 19.8303 19.635 20.2485L17.1018 19.1387L16.2574 20.7069L18.477 22.3233C18.4126 22.6128 18.3603 22.8942 18.3201 23.1677C18.2799 23.4411 18.2598 23.7226 18.2598 24.0121C18.2598 24.3016 18.2799 24.5871 18.3201 24.8685C18.3603 25.15 18.4126 25.4274 18.477 25.7008L16.2574 27.3173L17.1018 28.8854L19.635 27.7756C20.0371 28.1777 20.4834 28.5195 20.9739 28.801C21.4645 29.0824 21.9832 29.2875 22.53 29.4162L22.8678 32.0941Z" fill="#686687"/>
</g>
<defs>
<clipPath id="clip0_85_552">
<rect width="20" height="20" fill="white" transform="translate(14 14)"/>
</clipPath>
</defs>
</svg>
