<svg width="48" height="48" viewBox="0 0 48 48" fill="none" xmlns="http://www.w3.org/2000/svg">
<g clip-path="url(#clip0_85_555)">
<path d="M24.0603 29.6333C24.3337 29.6333 24.5709 29.5328 24.772 29.3317C24.973 29.1307 25.0735 28.8854 25.0735 28.5959C25.0735 28.3225 24.973 28.0852 24.772 27.8842C24.5709 27.6832 24.3337 27.5826 24.0603 27.5826C23.7708 27.5826 23.5255 27.6832 23.3244 27.8842C23.1234 28.0852 23.0229 28.3225 23.0229 28.5959C23.0229 28.8854 23.1234 29.1307 23.3244 29.3317C23.5255 29.5328 23.7708 29.6333 24.0603 29.6333ZM24.0361 19.8866C24.5187 19.8866 24.9087 20.0233 25.2062 20.2967C25.5038 20.5702 25.6525 20.9079 25.6525 21.31C25.6525 21.6156 25.5681 21.9131 25.3992 22.2027C25.2304 22.4922 24.9449 22.7977 24.5428 23.1194C24.1246 23.4893 23.7868 23.8874 23.5295 24.3136C23.2722 24.7398 23.1435 25.1218 23.1435 25.4596C23.1435 25.6526 23.2239 25.8094 23.3848 25.93C23.5456 26.0507 23.7225 26.111 23.9155 26.111C24.1246 26.111 24.3096 26.0426 24.4704 25.9059C24.6312 25.7692 24.7438 25.5883 24.8082 25.3631C24.8564 25.0575 24.961 24.7881 25.1218 24.5549C25.2826 24.3217 25.5158 24.0764 25.8214 23.8191C26.2718 23.4491 26.6055 23.0591 26.8226 22.649C27.0398 22.2388 27.1483 21.7764 27.1483 21.2618C27.1483 20.3932 26.8789 19.6936 26.3401 19.1628C25.8013 18.6321 25.0735 18.3667 24.1568 18.3667C23.5134 18.3667 22.9304 18.4954 22.4077 18.7527C21.885 19.0101 21.4386 19.38 21.0687 19.8625C20.924 20.0394 20.8717 20.2405 20.9119 20.4656C20.9521 20.6908 21.0446 20.8516 21.1893 20.9481C21.3823 21.0929 21.5955 21.1411 21.8287 21.0929C22.0619 21.0446 22.2589 20.916 22.4197 20.7069C22.6127 20.4495 22.85 20.2485 23.1314 20.1037C23.4129 19.959 23.7145 19.8866 24.0361 19.8866ZM23.9879 34C22.5886 34 21.2818 33.7467 20.0675 33.24C18.8532 32.7334 17.7957 32.0298 16.895 31.1291C15.9943 30.2284 15.2866 29.1709 14.772 27.9566C14.2573 26.7423 14 25.4274 14 24.0121C14 22.6128 14.2573 21.306 14.772 20.0917C15.2866 18.8774 15.9943 17.8199 16.895 16.9192C17.7957 16.0185 18.8532 15.3068 20.0675 14.7841C21.2818 14.2614 22.5886 14 23.9879 14C25.3711 14 26.6698 14.2614 27.8842 14.7841C29.0985 15.3068 30.156 16.0185 31.0567 16.9192C31.9573 17.8199 32.6731 18.8774 33.2038 20.0917C33.7346 21.306 34 22.6128 34 24.0121C34 25.4274 33.7346 26.7423 33.2038 27.9566C32.6731 29.1709 31.9573 30.2284 31.0567 31.1291C30.156 32.0298 29.0985 32.7334 27.8842 33.24C26.6698 33.7467 25.3711 34 23.9879 34ZM23.9879 32.0941C26.2235 32.0941 28.1294 31.306 29.7056 29.7298C31.2818 28.1536 32.0699 26.2477 32.0699 24.0121C32.0699 21.7925 31.2818 19.8906 29.7056 18.3064C28.1294 16.7222 26.2235 15.93 23.9879 15.93C21.704 15.93 19.786 16.7222 18.234 18.3064C16.6819 19.8906 15.9059 21.7925 15.9059 24.0121C15.9059 26.2477 16.6819 28.1536 18.234 29.7298C19.786 31.306 21.704 32.0941 23.9879 32.0941Z" fill="#686687"/>
</g>
<defs>
<clipPath id="clip0_85_555">
<rect width="20" height="20" fill="white" transform="translate(14 14)"/>
</clipPath>
</defs>
</svg>
