<svg width="50" height="50" viewBox="0 0 50 50" fill="none" xmlns="http://www.w3.org/2000/svg">
<rect x="0.25" y="0.25" width="49.5" height="49.5" rx="12.2727" fill="#F8F9FD"/>
<path d="M28.0586 10.7266H21.9414C21.1302 10.7266 20.3523 11.0488 19.7787 11.6224C19.2051 12.196 18.8828 12.974 18.8828 13.7852C18.8828 14.5963 19.2051 15.3743 19.7787 15.9479C20.3523 16.5215 21.1302 16.8438 21.9414 16.8438H28.0586C28.8698 16.8438 29.6477 16.5215 30.2213 15.9479C30.7949 15.3743 31.1172 14.5963 31.1172 13.7852C31.1172 12.974 30.7949 12.196 30.2213 11.6224C29.6477 11.0488 28.8698 10.7266 28.0586 10.7266Z" fill="#153AC7"/>
<path d="M33.0645 12.8574C33.1208 13.1636 33.1515 13.4739 33.1562 13.7852C33.1562 14.4546 33.0244 15.1175 32.7682 15.7359C32.512 16.3544 32.1365 16.9164 31.6632 17.3897C31.1898 17.8631 30.6279 18.2386 30.0094 18.4948C29.3909 18.751 28.728 18.8828 28.0586 18.8828H21.9414C20.5894 18.8828 19.2928 18.3457 18.3368 17.3897C17.3808 16.4337 16.8438 15.1371 16.8438 13.7852C16.8485 13.4739 16.8792 13.1636 16.9355 12.8574C15.7655 13.0739 14.7081 13.693 13.9465 14.6072C13.1849 15.5215 12.7672 16.6734 12.7656 17.8633V34.1758C12.7656 35.5278 13.3027 36.8244 14.2587 37.7804C15.2147 38.7364 16.5113 39.2734 17.8633 39.2734H32.1367C33.4887 39.2734 34.7853 38.7364 35.7413 37.7804C36.6973 36.8244 37.2344 35.5278 37.2344 34.1758V17.8633C37.2328 16.6734 36.8151 15.5215 36.0535 14.6072C35.2919 13.693 34.2345 13.0739 33.0645 12.8574ZM23.6848 30.8215L20.6262 33.8801C20.5314 33.9757 20.4187 34.0515 20.2944 34.1033C20.1702 34.155 20.0369 34.1817 19.9023 34.1817C19.7678 34.1817 19.6345 34.155 19.5103 34.1033C19.386 34.0515 19.2733 33.9757 19.1785 33.8801L18.1589 32.8606C18.0639 32.7655 17.9885 32.6527 17.937 32.5285C17.8856 32.4043 17.8591 32.2712 17.8591 32.1367C17.8591 32.0023 17.8856 31.8692 17.937 31.745C17.9885 31.6208 18.0639 31.5079 18.1589 31.4129C18.3509 31.2209 18.6113 31.113 18.8828 31.113C19.0172 31.113 19.1504 31.1395 19.2746 31.1909C19.3988 31.2424 19.5116 31.3178 19.6067 31.4129L19.8412 31.6575L20.0757 31.5352L22.2371 29.3738C22.3321 29.2787 22.445 29.2033 22.5692 29.1519C22.6934 29.1004 22.8265 29.074 22.9609 29.074C23.0954 29.074 23.2285 29.1004 23.3527 29.1519C23.4769 29.2033 23.5897 29.2787 23.6848 29.3738C23.7799 29.4689 23.8553 29.5817 23.9067 29.7059C23.9582 29.8301 23.9846 29.9632 23.9846 30.0977C23.9846 30.2321 23.9582 30.3652 23.9067 30.4894C23.8553 30.6136 23.7799 30.7265 23.6848 30.8215ZM23.6848 22.6653L20.6262 25.7239C20.5314 25.8194 20.4187 25.8953 20.2944 25.947C20.1702 25.9988 20.0369 26.0254 19.9023 26.0254C19.7678 26.0254 19.6345 25.9988 19.5103 25.947C19.386 25.8953 19.2733 25.8194 19.1785 25.7239L18.1589 24.7043C17.967 24.5124 17.8591 24.252 17.8591 23.9805C17.8591 23.709 17.967 23.4486 18.1589 23.2566C18.3509 23.0646 18.6113 22.9568 18.8828 22.9568C19.1543 22.9568 19.4147 23.0646 19.6067 23.2566L19.8412 23.5013L20.0757 23.3789L22.2371 21.2175C22.4291 21.0256 22.6894 20.9177 22.9609 20.9177C23.2324 20.9177 23.4928 21.0256 23.6848 21.2175C23.8768 21.4095 23.9846 21.6699 23.9846 21.9414C23.9846 22.2129 23.8768 22.4733 23.6848 22.6653ZM31.1172 33.1562H27.0391C26.7687 33.1562 26.5093 33.0488 26.3181 32.8576C26.1269 32.6664 26.0195 32.4071 26.0195 32.1367C26.0195 31.8663 26.1269 31.607 26.3181 31.4158C26.5093 31.2246 26.7687 31.1172 27.0391 31.1172H31.1172C31.3876 31.1172 31.6469 31.2246 31.8381 31.4158C32.0293 31.607 32.1367 31.8663 32.1367 32.1367C32.1367 32.4071 32.0293 32.6664 31.8381 32.8576C31.6469 33.0488 31.3876 33.1562 31.1172 33.1562ZM31.1172 25H27.0391C26.7687 25 26.5093 24.8926 26.3181 24.7014C26.1269 24.5102 26.0195 24.2509 26.0195 23.9805C26.0195 23.7101 26.1269 23.4508 26.3181 23.2596C26.5093 23.0684 26.7687 22.9609 27.0391 22.9609H31.1172C31.3876 22.9609 31.6469 23.0684 31.8381 23.2596C32.0293 23.4508 32.1367 23.7101 32.1367 23.9805C32.1367 24.2509 32.0293 24.5102 31.8381 24.7014C31.6469 24.8926 31.3876 25 31.1172 25Z" fill="#CBD4FF"/>
</svg>
