<svg width="50" height="50" viewBox="0 0 50 50" fill="none" xmlns="http://www.w3.org/2000/svg">
<rect x="0.25" y="0.25" width="49.5" height="49.5" rx="12.2727" fill="#F8F9FD"/>
<path d="M37.4369 22.6687C37.9127 22.5722 38.2539 22.1548 38.2539 21.6695V18.2031C38.2539 16.8913 37.1868 15.8242 35.875 15.8242H14.125C12.8132 15.8242 11.7461 16.8913 11.7461 18.2031V21.6695C11.7461 22.1535 12.0873 22.5722 12.5631 22.6687C13.6655 22.893 14.4648 23.8731 14.4648 25C14.4648 26.1269 13.6655 27.107 12.5631 27.3313C12.0873 27.4278 11.7461 27.8452 11.7461 28.3305V31.7969C11.7461 33.1087 12.8132 34.1758 14.125 34.1758H35.875C37.1868 34.1758 38.2539 33.1087 38.2539 31.7969V28.3305C38.2539 27.8465 37.9127 27.4278 37.4369 27.3313C36.3345 27.107 35.5352 26.1269 35.5352 25C35.5352 23.8731 36.3345 22.893 37.4369 22.6687Z" fill="#CBD4FF"/>
<path d="M32.1367 15.8242H30.0977V19.5625C30.0977 20.1253 30.5544 20.582 31.1172 20.582C31.68 20.582 32.1367 20.1253 32.1367 19.5625V15.8242ZM31.1172 22.6211C30.5544 22.6211 30.0977 23.0778 30.0977 23.6406V26.3594C30.0977 26.9222 30.5544 27.3789 31.1172 27.3789C31.68 27.3789 32.1367 26.9222 32.1367 26.3594V23.6406C32.1367 23.0778 31.68 22.6211 31.1172 22.6211ZM32.1367 30.4375C32.1367 29.8747 31.68 29.418 31.1172 29.418C30.5544 29.418 30.0977 29.8747 30.0977 30.4375V34.1758H32.1367V30.4375Z" fill="#153AC7"/>
<path d="M21.2711 20.3963C21.3217 20.2408 21.5416 20.2408 21.5921 20.3963L22.6527 23.6604C22.6753 23.7299 22.7401 23.777 22.8132 23.777H26.2453C26.4087 23.777 26.4767 23.9862 26.3444 24.0822L23.5678 26.0996C23.5087 26.1425 23.484 26.2187 23.5065 26.2882L24.5671 29.5523C24.6176 29.7078 24.4397 29.8371 24.3074 29.741L21.5308 27.7237C21.4717 27.6807 21.3916 27.6807 21.3325 27.7237L18.5559 29.741C18.4236 29.8371 18.2457 29.7078 18.2962 29.5523L19.3567 26.2882C19.3793 26.2187 19.3546 26.1425 19.2954 26.0996L16.5188 24.0822C16.3866 23.9862 16.4546 23.777 16.618 23.777H20.0501C20.1232 23.777 20.188 23.7299 20.2106 23.6604L21.2711 20.3963Z" fill="#153AC7"/>
</svg>
