<svg width="50" height="50" viewBox="0 0 50 50" fill="none" xmlns="http://www.w3.org/2000/svg">
<rect x="0.25" y="0.25" width="49.5" height="49.5" rx="12.2727" fill="#F8F9FD"/>
<path d="M17.7344 12.2852H14.8281C12.6237 12.2852 10.832 14.0769 10.832 16.2813V35.1719C10.832 36.5741 11.9727 37.7148 13.375 37.7148H19.1875C20.5898 37.7148 21.7305 36.5741 21.7305 35.1719V16.2813C21.7305 14.0769 19.9388 12.2852 17.7344 12.2852Z" fill="#CBD4FF"/>
<path d="M36.625 19.5508H17.7344C15.53 19.5508 13.7383 21.3425 13.7383 23.5469C13.7383 25.7513 15.53 27.543 17.7344 27.543H36.625C38.0273 27.543 39.168 26.4023 39.168 25V22.0938C39.168 20.6915 38.0273 19.5508 36.625 19.5508Z" fill="#153AC7"/>
<path d="M35.7589 19.5508C35.7371 19.6714 35.7051 19.7905 35.6397 19.9024L31.2077 27.543H28.7737C28.7955 27.4224 28.8274 27.3032 28.8928 27.1913L33.3249 19.5508H35.7589ZM24.6686 27.543L29.1006 19.9024C29.166 19.7905 29.198 19.6699 29.2198 19.5508H26.7858L22.3538 27.1913C22.2884 27.3032 22.2564 27.4224 22.2346 27.543H24.6686Z" fill="#CBD4FF"/>
</svg>
