<svg width="50" height="50" viewBox="0 0 50 50" fill="none" xmlns="http://www.w3.org/2000/svg">
<rect x="0.25" y="0.25" width="49.5" height="49.5" rx="12.2727" fill="#F8F9FD"/>
<path d="M21.6016 38.5938C20.8805 38.5938 20.189 38.3073 19.6791 37.7974C19.1693 37.2876 18.8828 36.5961 18.8828 35.875C18.8828 35.1539 19.1693 34.4624 19.6791 33.9526C20.189 33.4427 20.8805 33.1562 21.6016 33.1562C22.3226 33.1562 23.0141 33.4427 23.524 33.9526C24.0339 34.4624 24.3203 35.1539 24.3203 35.875C24.3203 36.5961 24.0339 37.2876 23.524 37.7974C23.0141 38.3073 22.3226 38.5938 21.6016 38.5938ZM32.4766 38.5938C31.7555 38.5938 31.064 38.3073 30.5541 37.7974C30.0443 37.2876 29.7578 36.5961 29.7578 35.875C29.7578 35.1539 30.0443 34.4624 30.5541 33.9526C31.064 33.4427 31.7555 33.1562 32.4766 33.1562C33.1976 33.1562 33.8891 33.4427 34.399 33.9526C34.9089 34.4624 35.1953 35.1539 35.1953 35.875C35.1953 36.5961 34.9089 37.2876 34.399 37.7974C33.8891 38.3073 33.1976 38.5938 32.4766 38.5938Z" fill="#CBD4FF"/>
<path d="M19.8072 27.7188C19.508 27.7188 19.2171 27.6201 18.9797 27.438C18.7422 27.2558 18.5715 27.0005 18.494 26.7115L15.1214 14.125H13.4453C13.0848 14.125 12.739 13.9818 12.4841 13.7268C12.2292 13.4719 12.0859 13.1262 12.0859 12.7656C12.0859 12.4051 12.2292 12.0593 12.4841 11.8044C12.739 11.5495 13.0848 11.4062 13.4453 11.4062L16.1641 11.4076C16.4633 11.4076 16.7542 11.5063 16.9916 11.6884C17.229 11.8705 17.3997 12.1259 17.4772 12.4149L20.8498 25H33.8359C34.9175 25 35.9548 25.4297 36.7196 26.1945C37.4844 26.9593 37.9141 27.9965 37.9141 29.0781C37.9141 30.1597 37.4844 31.197 36.7196 31.9618C35.9548 32.7266 34.9175 33.1562 33.8359 33.1562H16.1641C15.8035 33.1562 15.4578 33.013 15.2028 32.7581C14.9479 32.5032 14.8047 32.1574 14.8047 31.7969C14.8047 31.4363 14.9479 31.0906 15.2028 30.8357C15.4578 30.5807 15.8035 30.4375 16.1641 30.4375H33.8359C34.1965 30.4375 34.5422 30.2943 34.7972 30.0393C35.0521 29.7844 35.1953 29.4387 35.1953 29.0781C35.1953 28.7176 35.0521 28.3718 34.7972 28.1169C34.5422 27.862 34.1965 27.7188 33.8359 27.7188H19.8072Z" fill="#153AC7"/>
<path d="M20.8498 25H33.8359C34.3511 25.0014 34.8595 25.102 35.3367 25.295L37.8678 15.8365C37.9218 15.635 37.9288 15.4239 37.8881 15.2193C37.8475 15.0148 37.7603 14.8223 37.6333 14.6569C37.5064 14.4914 37.3431 14.3574 37.156 14.2652C36.969 14.1729 36.7632 14.125 36.5547 14.125H17.9353L20.8498 25Z" fill="#CBD4FF"/>
</svg>
