<svg width="33" height="32" viewBox="0 0 33 32" fill="none" xmlns="http://www.w3.org/2000/svg">
<g clip-path="url(#clip0_1_4450)">
<path d="M27.6917 12.0039C27.5016 12.0039 27.3471 11.9505 27.2284 11.8436C27.1096 11.7366 27.0264 11.6119 26.9789 11.4694L26.8007 10.7566C26.5631 10.6616 26.3196 10.5309 26.0701 10.3646C25.8206 10.1983 25.6127 10.0201 25.4464 9.83L24.4486 10.222C24.2822 10.2695 24.1159 10.2636 23.9496 10.2042C23.7833 10.1448 23.6526 10.0319 23.5576 9.86563L23.4151 9.6518C23.32 9.48549 23.2963 9.32512 23.3438 9.17069C23.3913 9.01625 23.4863 8.87964 23.6289 8.76085L24.4129 8.15499C24.3654 8.0362 24.3238 7.90552 24.2882 7.76297C24.2526 7.62042 24.2347 7.47786 24.2347 7.33531C24.2347 7.19276 24.2526 7.0502 24.2882 6.90765C24.3238 6.7651 24.3654 6.63442 24.4129 6.51563L23.6289 5.90978C23.4863 5.76722 23.3972 5.62467 23.3616 5.48212C23.326 5.33956 23.3557 5.18513 23.4507 5.01882L23.5932 4.76935C23.6883 4.60304 23.813 4.49018 23.9674 4.43079C24.1219 4.37139 24.2822 4.37733 24.4486 4.4486L25.4464 4.84063C25.6127 4.65056 25.8206 4.46642 26.0701 4.28823C26.3196 4.11004 26.5631 3.98531 26.8007 3.91403L26.9789 3.20126C27.0264 3.03495 27.1096 2.90428 27.2284 2.80924C27.3471 2.7142 27.5016 2.66669 27.6917 2.66669H27.9055C28.0718 2.66669 28.2203 2.7142 28.351 2.80924C28.4816 2.90428 28.5707 3.03495 28.6182 3.20126L28.7964 3.91403C29.034 3.98531 29.2776 4.11004 29.527 4.28823C29.7765 4.46642 29.9844 4.65056 30.1507 4.84063L31.1486 4.4486C31.2911 4.37733 31.4456 4.37139 31.6119 4.43079C31.7782 4.49018 31.9089 4.60304 32.0039 4.76935L32.1464 5.01882C32.2415 5.18513 32.2712 5.33956 32.2355 5.48212C32.1999 5.62467 32.1108 5.76722 31.9683 5.90978L31.1842 6.51563C31.2317 6.63442 31.2733 6.7651 31.3089 6.90765C31.3446 7.0502 31.3624 7.19276 31.3624 7.33531C31.3624 7.47786 31.3446 7.62042 31.3089 7.76297C31.2733 7.90552 31.2317 8.0362 31.1842 8.15499L31.9683 8.76085C32.1108 8.87964 32.1999 9.02219 32.2355 9.18851C32.2712 9.35482 32.2415 9.52113 32.1464 9.68744L32.0039 9.90127C31.9089 10.0676 31.7782 10.1745 31.6119 10.222C31.4456 10.2695 31.2911 10.2695 31.1486 10.222L30.1507 9.83C29.9844 10.0201 29.7765 10.1983 29.527 10.3646C29.2776 10.5309 29.034 10.6616 28.7964 10.7566L28.6182 11.4694C28.5707 11.6119 28.4816 11.7366 28.351 11.8436C28.2203 11.9505 28.0718 12.0039 27.9055 12.0039H27.6917ZM27.7986 9.40234C28.3925 9.40234 28.8855 9.20633 29.2776 8.8143C29.6696 8.42228 29.8656 7.92928 29.8656 7.33531C29.8656 6.74134 29.6696 6.24834 29.2776 5.85632C28.8855 5.4643 28.3925 5.26829 27.7986 5.26829C27.2046 5.26829 26.7116 5.4643 26.3196 5.85632C25.9276 6.24834 25.7315 6.74134 25.7315 7.33531C25.7315 7.92928 25.9276 8.42228 26.3196 8.8143C26.7116 9.20633 27.2046 9.40234 27.7986 9.40234ZM23.4507 19.88C23.4269 19.88 23.32 19.785 23.1299 19.5949L23.0943 18.8465C22.928 18.7515 22.7557 18.6445 22.5775 18.5258C22.3994 18.407 22.239 18.2763 22.0964 18.1337L21.4193 18.4901C21.3955 18.5139 21.253 18.4782 20.9916 18.3832L20.564 17.7417C20.564 17.7417 20.5759 17.611 20.5996 17.3497L21.3124 16.8508C21.2649 16.7557 21.2411 16.6666 21.2411 16.5835C21.2411 16.5003 21.2411 16.4112 21.2411 16.3162C21.2411 16.2211 21.2411 16.132 21.2411 16.0489C21.2411 15.9657 21.2649 15.8766 21.3124 15.7816L20.5996 15.2827C20.5759 15.2827 20.564 15.1401 20.564 14.855L20.9916 14.2135C21.0154 14.1898 21.158 14.1541 21.4193 14.1066L22.0964 14.463C22.2627 14.3442 22.4291 14.2254 22.5954 14.1066C22.7617 13.9878 22.928 13.8809 23.0943 13.7859L23.1299 13.0374C23.1299 13.0374 23.2369 12.9424 23.4507 12.7523H24.306C24.3298 12.7523 24.4367 12.8474 24.6268 13.0374L24.6624 13.7859C24.8287 13.8809 24.9891 13.9878 25.1435 14.1066C25.2979 14.2254 25.4702 14.3442 25.6603 14.463L26.3374 14.1066C26.3612 14.1066 26.5037 14.1422 26.7651 14.2135L27.1927 14.855C27.169 14.855 27.1571 14.9976 27.1571 15.2827L26.4443 15.7816C26.4681 15.8766 26.4859 15.9657 26.4978 16.0489C26.5096 16.132 26.5156 16.2211 26.5156 16.3162C26.5156 16.4112 26.5096 16.5003 26.4978 16.5835C26.4859 16.6666 26.4681 16.7557 26.4443 16.8508L27.1571 17.3497C27.1571 17.3497 27.169 17.4922 27.1927 17.7773L26.7651 18.4188C26.7413 18.4426 26.5987 18.4782 26.3374 18.5258L25.6603 18.1694C25.5177 18.2882 25.3573 18.407 25.1791 18.5258C25.001 18.6445 24.8287 18.7515 24.6624 18.8465L24.6268 19.5949C24.6268 19.5949 24.5198 19.6899 24.306 19.88H23.4507ZM23.8783 17.6704C24.2585 17.6704 24.5792 17.5398 24.8406 17.2784C25.1019 17.0171 25.2326 16.6963 25.2326 16.3162C25.2326 15.936 25.1019 15.6153 24.8406 15.3539C24.5792 15.0926 24.2466 14.9619 23.8427 14.9619C23.4626 14.9619 23.1478 15.0926 22.8983 15.3539C22.6488 15.6153 22.5241 15.936 22.5241 16.3162C22.5241 16.6963 22.6488 17.0171 22.8983 17.2784C23.1478 17.5398 23.4744 17.6704 23.8783 17.6704ZM12.0464 17.7773C10.3358 17.7773 8.92806 17.225 7.82327 16.1202C6.71848 15.0154 6.16609 13.6552 6.16609 12.0396H5.8097C5.59587 12.0396 5.39986 11.9564 5.22167 11.7901C5.04348 11.6238 4.95438 11.4218 4.95438 11.1843C4.95438 10.9467 5.04348 10.7447 5.22167 10.5784C5.39986 10.4121 5.59587 10.3289 5.8097 10.3289H6.16609C6.16609 9.3073 6.44526 8.3807 7.00359 7.54914C7.56192 6.71758 8.29251 6.07609 9.19535 5.62467V7.01457C9.19535 7.18088 9.24881 7.31155 9.35572 7.40659C9.46264 7.50162 9.58737 7.54914 9.72992 7.54914C9.89624 7.54914 10.0329 7.50162 10.1398 7.40659C10.2467 7.31155 10.3001 7.18088 10.3001 7.01457V5.19701C10.4902 5.14949 10.7575 5.10791 11.102 5.07228C11.4465 5.03664 11.7732 5.01882 12.0821 5.01882C12.3909 5.01882 12.7117 5.03664 13.0443 5.07228C13.3769 5.10791 13.6383 5.14949 13.8283 5.19701V7.01457C13.8283 7.18088 13.8818 7.31155 13.9887 7.40659C14.0956 7.50162 14.2322 7.54914 14.3985 7.54914C14.5649 7.54914 14.7015 7.50162 14.8084 7.40659C14.9153 7.31155 14.9688 7.18088 14.9688 7.01457V5.62467C15.8478 6.07609 16.5547 6.71758 17.0892 7.54914C17.6238 8.3807 17.8911 9.3073 17.8911 10.3289H18.2475C18.4613 10.3289 18.6573 10.4121 18.8355 10.5784C19.0137 10.7447 19.1028 10.9467 19.1028 11.1843C19.1028 11.4218 19.0137 11.6238 18.8355 11.7901C18.6573 11.9564 18.4613 12.0396 18.2475 12.0396H17.8911C17.8911 13.6552 17.3447 15.0154 16.2517 16.1202C15.1588 17.225 13.7571 17.7773 12.0464 17.7773ZM12.0464 14.9619C12.973 14.9619 13.7036 14.6828 14.2382 14.1244C14.7728 13.5661 15.04 12.8355 15.04 11.9327H9.01716C9.01716 12.8117 9.28444 13.5364 9.81902 14.1066C10.3536 14.6768 11.0961 14.9619 12.0464 14.9619ZM0.250122 29.6806V25.8673C0.250122 24.8931 0.487711 24.1032 0.962889 23.4973C1.43807 22.8915 2.02016 22.4222 2.70917 22.0896C3.99215 21.4719 5.4058 20.9551 6.95013 20.5393C8.49446 20.1235 10.1932 19.9157 12.0464 19.9157C13.8996 19.9157 15.5924 20.1176 17.1249 20.5215C18.6573 20.9254 20.065 21.4362 21.348 22.054C22.037 22.4103 22.6191 22.8915 23.0943 23.4973C23.5695 24.1032 23.8071 24.8931 23.8071 25.8673V29.6806H0.250122ZM3.10119 26.8295H20.956V25.9385C20.956 25.5821 20.855 25.297 20.6531 25.0832C20.4511 24.8694 20.2076 24.7031 19.9225 24.5843C18.9009 24.1329 17.7783 23.7171 16.5547 23.3369C15.3311 22.9568 13.8283 22.7667 12.0464 22.7667C10.2645 22.7667 8.75581 22.9627 7.52035 23.3548C6.28488 23.7468 5.15634 24.1566 4.1347 24.5843C3.8496 24.7031 3.60607 24.8694 3.40412 25.0832C3.20217 25.297 3.10119 25.5821 3.10119 25.9385V26.8295Z" fill="#DFC040"/>
</g>
<defs>
<clipPath id="clip0_1_4450">
<rect width="32" height="32" fill="white" transform="translate(0.25)"/>
</clipPath>
</defs>
</svg>
