<svg width="48" height="48" viewBox="0 0 48 48" fill="none" xmlns="http://www.w3.org/2000/svg">
<g clip-path="url(#clip0_85_532)">
<path d="M16.9918 31.8415H20.6803V24.8743H27.2377V31.8415H30.9262V21.377L23.959 16.1585L16.9918 21.377V31.8415ZM16.9918 34C16.3907 34 15.8806 33.7905 15.4617 33.3716C15.0428 32.9526 14.8333 32.4426 14.8333 31.8415V21.377C14.8333 21.0492 14.9107 20.7304 15.0655 20.4208C15.2204 20.1111 15.4344 19.8561 15.7076 19.6557L22.6475 14.4372C22.8479 14.2914 23.0619 14.1821 23.2896 14.1093C23.5173 14.0364 23.7404 14 23.959 14C24.1958 14 24.4235 14.0364 24.642 14.1093C24.8606 14.1821 25.0701 14.2914 25.2704 14.4372L32.2103 19.6557C32.4836 19.8561 32.7021 20.1111 32.8661 20.4208C33.03 20.7304 33.112 21.0492 33.112 21.377V31.8415C33.112 32.4426 32.898 32.9526 32.4699 33.3716C32.0419 33.7905 31.5273 34 30.9262 34H25.2431V26.8689H22.6748V34H16.9918Z" fill="#686687"/>
</g>
<defs>
<clipPath id="clip0_85_532">
<rect width="20" height="20" fill="white" transform="translate(14 14)"/>
</clipPath>
</defs>
</svg>
