<svg width="48" height="48" viewBox="0 0 48 48" fill="none" xmlns="http://www.w3.org/2000/svg">
<path d="M26.6257 34C26.4655 34 26.3187 33.9733 26.1851 33.9199C26.0516 33.8665 25.9315 33.7864 25.8247 33.6796L19.1491 26.6569C19.0245 26.5145 18.9132 26.3275 18.8153 26.0961C18.7174 25.8647 18.6684 25.6422 18.6684 25.4286C18.6684 25.0369 18.8064 24.7032 19.0823 24.4272C19.3583 24.1513 19.692 24.0134 20.0837 24.0134H22.4869C23.377 24.0134 24.1691 23.7463 24.8634 23.2123C25.5576 22.6782 25.9671 21.9039 26.0917 20.8892H18.4014C18.0988 20.8892 17.8451 20.7868 17.6404 20.5821C17.4357 20.3774 17.3333 20.1237 17.3333 19.8211C17.3333 19.5185 17.4357 19.2692 17.6404 19.0734C17.8451 18.8776 18.0988 18.7797 18.4014 18.7797H26.0383C25.8425 17.9964 25.393 17.36 24.6898 16.8705C23.9867 16.381 23.2256 16.1362 22.4068 16.1362H18.4014C18.0988 16.1362 17.8451 16.0338 17.6404 15.8291C17.4357 15.6244 17.3333 15.3707 17.3333 15.0681C17.3333 14.7833 17.4357 14.534 17.6404 14.3204C17.8451 14.1068 18.0988 14 18.4014 14H29.6164C29.919 14 30.1727 14.1068 30.3774 14.3204C30.5821 14.534 30.6845 14.7833 30.6845 15.0681C30.6845 15.3707 30.5821 15.6244 30.3774 15.8291C30.1727 16.0338 29.919 16.1362 29.6164 16.1362H26.7058C27.0619 16.421 27.3778 16.826 27.6538 17.3511C27.9297 17.8763 28.13 18.3525 28.2546 18.7797H29.6164C29.919 18.7797 30.1727 18.8776 30.3774 19.0734C30.5821 19.2692 30.6845 19.5185 30.6845 19.8211C30.6845 20.1237 30.5821 20.3774 30.3774 20.5821C30.1727 20.7868 29.919 20.8892 29.6164 20.8892H28.2546C28.0766 22.4913 27.4668 23.7552 26.4255 24.6809C25.3841 25.6066 24.1513 26.0872 22.7272 26.1228H21.579L27.4001 32.2109C27.7205 32.567 27.7873 32.9542 27.6004 33.3725C27.4134 33.7908 27.0886 34 26.6257 34Z" fill="#686687"/>
</svg>
