<svg width="48" height="48" viewBox="0 0 48 48" fill="none" xmlns="http://www.w3.org/2000/svg">
<rect width="48" height="48" rx="24" fill="#153AC7"/>
<path d="M14.8791 31.0714C14.63 31.0714 14.4212 30.9908 14.2527 30.8297C14.0842 30.6685 14 30.4634 14 30.2143V28.6758C14 28.1044 14.1465 27.5879 14.4396 27.1264C14.7326 26.6648 15.1429 26.3169 15.6703 26.0824C16.7546 25.6136 17.7363 25.2729 18.6154 25.0604C19.4945 24.848 20.4029 24.7418 21.3407 24.7418C22.293 24.7418 23.2051 24.8443 24.0769 25.0495C24.9487 25.2546 25.9267 25.5989 27.011 26.0824C27.5238 26.3022 27.9341 26.6429 28.2418 27.1044C28.5495 27.5659 28.7033 28.0897 28.7033 28.6758V30.2143C28.7033 30.4634 28.619 30.6685 28.4505 30.8297C28.2821 30.9908 28.0733 31.0714 27.8242 31.0714H14.8791ZM29.5824 31.0714C29.7436 31.0275 29.8791 30.9249 29.989 30.7637C30.0989 30.6026 30.1538 30.4048 30.1538 30.1703V28.7198C30.1538 27.7674 29.9231 26.9799 29.4615 26.3571C29 25.7344 28.3736 25.1886 27.5824 24.7198C28.5348 24.8516 29.4322 25.0275 30.2747 25.2473C31.1172 25.467 31.8022 25.7161 32.3297 25.9945C32.8425 26.2729 33.2491 26.6502 33.5494 27.1264C33.8498 27.6026 34 28.141 34 28.7418V30.2143C34 30.4634 33.9158 30.6685 33.7473 30.8297C33.5788 30.9908 33.37 31.0714 33.1209 31.0714H29.5824ZM21.3407 23.4011C20.3297 23.4011 19.5018 23.0788 18.8571 22.4341C18.2125 21.7894 17.8901 20.9615 17.8901 19.9505C17.8901 18.9249 18.2125 18.0934 18.8571 17.456C19.5018 16.8187 20.3297 16.5 21.3407 16.5C22.3663 16.5 23.1978 16.8187 23.8352 17.456C24.4725 18.0934 24.7912 18.9176 24.7912 19.9286C24.7912 20.9542 24.4725 21.7894 23.8352 22.4341C23.1978 23.0788 22.3663 23.4011 21.3407 23.4011ZM29.7143 19.9286C29.7143 20.9542 29.3919 21.7894 28.7473 22.4341C28.1026 23.0788 27.2747 23.4011 26.2637 23.4011C26.0879 23.4011 25.9048 23.3864 25.7143 23.3571C25.5238 23.3278 25.3407 23.2839 25.1648 23.2253C25.5311 22.8297 25.8059 22.3571 25.989 21.8077C26.1722 21.2582 26.2637 20.6392 26.2637 19.9505C26.2637 19.2619 26.1722 18.6502 25.989 18.1154C25.8059 17.5806 25.5311 17.1007 25.1648 16.6758C25.326 16.6172 25.5055 16.5733 25.7033 16.544C25.9011 16.5147 26.0879 16.5 26.2637 16.5C27.2747 16.5 28.1026 16.8223 28.7473 17.467C29.3919 18.1117 29.7143 18.9322 29.7143 19.9286ZM15.7363 29.3352H26.9451V28.7198C26.9451 28.5 26.8755 28.2802 26.7363 28.0604C26.5971 27.8407 26.4249 27.6941 26.2198 27.6209C25.1941 27.1667 24.337 26.8626 23.6484 26.7088C22.9597 26.5549 22.1905 26.478 21.3407 26.478C20.5201 26.478 19.7509 26.5549 19.033 26.7088C18.315 26.8626 17.4505 27.1667 16.4396 27.6209C16.2491 27.6941 16.0842 27.8407 15.9451 28.0604C15.8059 28.2802 15.7363 28.5 15.7363 28.7198V29.3352ZM21.3407 21.7967C21.8828 21.7967 22.326 21.6209 22.6703 21.2692C23.0147 20.9176 23.1868 20.478 23.1868 19.9505C23.1868 19.4084 23.0147 18.9652 22.6703 18.6209C22.326 18.2766 21.8828 18.1044 21.3407 18.1044C20.8132 18.1044 20.3736 18.2766 20.022 18.6209C19.6703 18.9652 19.4945 19.4011 19.4945 19.9286C19.4945 20.4707 19.6703 20.9176 20.022 21.2692C20.3736 21.6209 20.8132 21.7967 21.3407 21.7967Z" fill="white"/>
</svg>
