<svg width="16" height="16" viewBox="0 0 16 16" fill="none" xmlns="http://www.w3.org/2000/svg">
<path d="M1.45126 14.5466H2.25277L11.7626 5.01514L10.9394 4.21363L1.45126 13.7235V14.5466ZM14.7087 4.10532L11.8709 1.26753L12.7374 0.401033C13.0118 0.126642 13.3476 -0.0069431 13.7447 0.000277724C14.1419 0.00749855 14.4848 0.148305 14.7737 0.422696L15.5969 1.22421C15.8857 1.51304 16.0193 1.85242 15.9976 2.24234C15.9759 2.63227 15.8279 2.96443 15.5535 3.23882L14.7087 4.10532ZM0.866377 15.9763C0.620869 15.9763 0.415075 15.8933 0.248996 15.7272C0.0829175 15.5612 -0.00012207 15.3554 -0.00012207 15.1098V13.5068C-0.00012207 13.3913 0.0215404 13.283 0.0648654 13.1819C0.10819 13.0808 0.173178 12.9869 0.259827 12.9003L10.9611 2.17736L13.7989 4.99348L3.09761 15.7164C3.01096 15.803 2.91348 15.868 2.80517 15.9114C2.69686 15.9547 2.58493 15.9763 2.4694 15.9763H0.866377ZM11.3727 4.60355L10.9394 4.21363L11.7626 5.01514L11.3727 4.60355Z" fill="#153AC7"/>
</svg>
